# Created by Kenney (www.kenney.nl)

mtllib hand.mtl

g mergedBlocks

v -0.04010354 -0.3324705 0.1491025
v -0.04276167 -0.3103193 0.1593158
v 0.004575923 -0.3271089 0.1491025
v 0.001917779 -0.3049578 0.1593158
v -0.003162786 -0.2626197 0.1116025
v -0.0004848838 -0.2849356 0.147673
v -0.04516433 -0.2902971 0.147673
v -0.04784223 -0.2679812 0.1116025
v 0.03297028 -0.3958663 0.075
v -0.03156671 -0.4036107 0.075
v 0.02701305 -0.3462224 0.1616025
v -0.03752396 -0.3539669 0.1616025
v 0.06256184 -0.3487034 0.05
v 0.05660456 -0.2990595 0.1366025
v 0.04925679 -0.2378279 0.1009968
v -0.0500309 -0.2497424 0.1009968
v 0.05521405 -0.2874718 0.01439428
v -0.04407363 -0.2993863 0.01439428
v 0.05121174 -0.2541192 -0.005
v 0.04525447 -0.2044753 0.08160254
v -0.04807594 -0.2660337 -0.005
v -0.0540332 -0.2163898 0.08160254
v -0.05344179 -0.2213183 -0.03100168
v 0.04584588 -0.2094037 -0.03100168
v -0.05736241 -0.1886466 -0.05
v 0.04192528 -0.1767321 -0.05
v -0.07999998 0 -0.05
v 0.03120223 -0.08737316 -0.05
v -0.002555594 -0.01588603 -0.05
v -0.05939907 -0.1716744 0.05560086
v -0.06055488 -0.1620425 0.05
v 0.03988861 -0.1597599 0.05560086
v 0.0387328 -0.150128 0.05
v -0.07999998 0 0.05
v 0.03120223 -0.08737316 0.05
v -0.002555594 -0.01588603 0.05
v -0.05522466 -0.2064611 0.09892305
v -0.06059051 -0.1617457 0.07292137
v 0.04406302 -0.1945466 0.09892305
v 0.03869717 -0.1498311 0.07292137
v -0.07329933 -0.2237012 -0.03100168
v -0.07925659 -0.1740573 0.05560086
v -0.06793348 -0.2684166 -0.005
v -0.07389075 -0.2187727 0.08160254
v -0.04688449 -0.2759625 -0.02232051
v 0.05240318 -0.2640479 -0.02232051
v -0.05225034 -0.231247 -0.04832218
v 0.04703733 -0.2193325 -0.04832218
v 0.06570342 -0.2070208 -0.03100168
v 0.07106927 -0.2517363 -0.005
v 0.05974618 -0.157377 0.05560086
v 0.06511199 -0.2020924 0.08160254

vn 0.04959361 -0.41328 0.9092525
vn -0.005614849 0.04679041 0.998889
vn 0.9928768 0.1191452 0
vn -0.08281942 0.6901618 0.7189002
vn -0.1011207 0.8426723 0.528846
vn 0.1031828 -0.8598566 0.5000001
vn 0.9779651 -0.1448735 0.1503197
vn 0.8725678 -0.3954878 0.2867312
vn -0.05957261 0.4964384 0.8660254
vn 0.05957261 -0.4964384 -0.8660254
vn -0.9928768 -0.1191452 0
vn -0.1031828 0.8598566 -0.5000001
vn 0 0 -1
vn 0 0 1
vn 0.6178216 0.7863184 0
vn 0.2009441 0.9796027 0
vn 0.9609714 0.276648 0
vn -0.4349955 0.4130544 0.8001032
vn 0.3249196 0.5042442 0.8001032
vn -0.8945012 -0.3000546 -0.3314136
vn -0.940096 0.07990292 0.3314135
vn -0.3249196 -0.5042442 -0.8001032
vn 0.4349955 -0.4130544 -0.8001032
vn 0.940096 -0.07990292 -0.3314135
vn 0.8945012 0.3000546 0.3314136

vt -0.04010354 -0.3324705
vt -0.04276167 -0.3103193
vt 0.004575923 -0.3271089
vt 0.001917779 -0.3049578
vt -0.1116025 -0.2626197
vt -0.1491025 -0.3271089
vt -0.147673 -0.2849356
vt -0.1593158 -0.3049578
vt 0.0004848838 0.147673
vt 0.04516433 0.147673
vt 0.003162786 0.1116025
vt 0.04784223 0.1116025
vt -0.04516433 -0.2902971
vt -0.0004848838 -0.2849356
vt -0.03297028 -0.075
vt 0.03156671 -0.075
vt -0.02701305 -0.1616025
vt 0.03752396 -0.1616025
vt -0.05 -0.3487034
vt -0.075 -0.3958663
vt -0.1366025 -0.2990595
vt -0.1616025 -0.3462224
vt -0.03752396 -0.3539669
vt 0.02701305 -0.3462224
vt 0.05660456 -0.2990595
vt -0.003162786 -0.2626197
vt 0.04925679 -0.2378279
vt -0.0500309 -0.2497424
vt -0.04784223 -0.2679812
vt -0.01439428 -0.2874718
vt -0.1009968 -0.2378279
vt 0.03156671 -0.4036107
vt -0.03297028 -0.3958663
vt 0.04407363 -0.2993863
vt -0.06256184 -0.3487034
vt -0.05521405 -0.2874718
vt 0.01439428 -0.2993863
vt 0.1009968 -0.2497424
vt 0.075 -0.4036107
vt 0.1116025 -0.2679812
vt 0.1616025 -0.3539669
vt 0.147673 -0.2902971
vt 0.1491025 -0.3324705
vt 0.1593158 -0.3103193
vt 0.005 -0.2541192
vt -0.08160254 -0.2044753
vt -0.005 -0.2660337
vt 0.08160254 -0.2163898
vt 0.04807594 -0.2660337
vt -0.05121174 -0.2541192
vt -0.0540332 -0.2163898
vt 0.04525447 -0.2044753
vt -0.05521405 0.01439428
vt -0.04925679 0.1009968
vt 0.04407363 0.01439428
vt 0.0500309 0.1009968
vt 0.05344179 -0.2213183
vt -0.04584588 -0.2094037
vt 0.05736241 -0.1886466
vt -0.04192528 -0.1767321
vt 0.07999998 0
vt -0.03120223 -0.08737316
vt 0.002555594 -0.01588603
vt -0.05939907 -0.1716744
vt -0.06055488 -0.1620425
vt 0.03988861 -0.1597599
vt 0.0387328 -0.150128
vt -0.03100168 -0.2213183
vt 0.05 -0.1620425
vt 0.05560086 -0.1716744
vt 0.05 0
vt -0.05 0
vt -0.05 -0.1886466
vt -0.07999998 0
vt 0.03120223 -0.08737316
vt -0.002555594 -0.01588603
vt 0.002555594 -0.05
vt 0.002555594 0.05
vt 0.07999998 -0.05
vt 0.07999998 0.05
vt 0.05 -0.01588603
vt 0.05 -0.08737316
vt -0.05 -0.01588603
vt -0.05 -0.08737316
vt 0.05 -0.1767321
vt 0.03100168 -0.2094037
vt -0.05 -0.150128
vt -0.05560086 -0.1597599
vt -0.05522466 -0.2064611
vt -0.06059051 -0.1617457
vt 0.04406302 -0.1945466
vt 0.03869717 -0.1498311
vt -0.03100168 -0.2237012
vt 0.05560086 -0.1740573
vt -0.005 -0.2684166
vt 0.08160254 -0.2187727
vt 0.04688449 -0.2759625
vt -0.05240318 -0.2640479
vt 0.05225034 -0.231247
vt -0.04703733 -0.2193325
vt 0.03100168 -0.2070208
vt 0.005 -0.2517363
vt -0.05560086 -0.157377
vt -0.08160254 -0.2020924
vt -0.04703733 -0.04832218
vt -0.04584588 -0.03100168
vt 0.05225034 -0.04832218
vt 0.05344179 -0.03100168
vt 0.07329933 -0.03100168
vt 0.05939907 0.05560086
vt 0.06059051 0.07292137
vt 0.07925659 0.05560086
vt 0.04584588 -0.2094037
vt 0.04703733 -0.2193325
vt -0.03988861 0.05560086
vt -0.05974618 0.05560086
vt -0.06570342 -0.03100168
vt -0.03869717 0.07292137
vt 0.07292137 -0.1617457
vt 0.09892305 -0.2064611
vt -0.07292137 -0.1498311
vt -0.09892305 -0.1945466
vt 0.04832218 -0.2193325
vt 0.02232051 -0.2640479
vt -0.04832218 -0.231247
vt -0.02232051 -0.2759625
vt -0.07106927 0.005
vt -0.05240318 0.02232051
vt -0.06511199 -0.08160254
vt -0.05121174 0.005
vt -0.04525447 -0.08160254
vt -0.04406302 -0.09892305
vt 0.0540332 -0.08160254
vt 0.05522466 -0.09892305
vt 0.04688449 0.02232051
vt 0.04807594 0.005
vt 0.06793348 0.005
vt 0.07389075 -0.08160254

usemtl skin(Clone)

f 3/3/1 2/2/2 1/1/1
f 2/2/2 3/3/1 4/4/2
f 6/7/3 3/6/3 5/5/3
f 3/6/3 6/7/3 4/8/3
f 5/11/5 7/10/4 6/9/4
f 7/10/4 5/11/5 8/12/5
f 4/4/2 7/13/4 2/2/2
f 7/13/4 4/4/2 6/14/4
f 11/17/6 10/16/6 9/15/6
f 10/16/6 11/17/6 12/18/6
f 14/21/7 9/20/8 13/19/7
f 9/20/8 14/21/7 11/22/8
f 11/24/9 1/1/9 12/23/9
f 1/1/9 11/24/9 3/3/9
f 3/3/9 11/24/9 14/25/9
f 3/3/9 14/25/9 5/26/9
f 5/26/9 14/25/9 15/27/9
f 5/26/9 15/27/9 16/28/9
f 16/28/9 8/29/9 5/26/9
f 15/31/3 13/19/7 17/30/3
f 13/19/7 15/31/3 14/21/7
f 18/34/10 9/33/10 10/32/10
f 9/33/10 18/34/10 13/35/10
f 13/35/10 18/34/10 17/36/10
f 10/39/11 16/38/11 18/37/11
f 16/38/11 10/39/11 8/40/11
f 8/40/11 10/39/11 12/41/11
f 8/29/11 12/23/11 1/1/11
f 8/40/11 1/43/11 7/42/11
f 2/44/11 7/42/11 1/43/11

usemtl _defaultMat(Clone)

f 20/46/3 17/30/3 19/45/3
f 17/30/3 20/46/3 15/31/3
f 18/37/11 22/48/11 21/47/11
f 22/48/11 18/37/11 16/38/11
f 21/49/10 17/36/10 18/34/10
f 17/36/10 21/49/10 19/50/10
f 15/27/9 22/51/9 16/28/9
f 22/51/9 15/27/9 20/52/9
f 18/55/12 15/54/12 17/53/12
f 15/54/12 18/55/12 16/56/12

usemtl foliage(Clone)

f 25/59/10 24/58/10 23/57/10
f 24/58/10 25/59/10 26/60/10
f 27/61/13 26/60/13 25/59/13
f 26/60/13 27/61/13 28/62/13
f 28/62/13 27/61/13 29/63/13
f 32/66/9 31/65/9 30/64/9
f 31/65/9 32/66/9 33/67/9
f 30/70/11 31/69/11 23/68/11
f 34/71/11 23/68/11 31/69/11
f 27/72/11 23/68/11 34/71/11
f 23/68/11 27/72/11 25/73/11
f 33/67/14 34/74/14 31/65/14
f 34/74/14 33/67/14 35/75/14
f 34/74/14 35/75/14 36/76/14
f 27/79/16 36/78/15 29/77/15
f 36/78/15 27/79/16 34/80/16
f 36/83/15 28/82/17 29/81/15
f 28/82/17 36/83/15 35/84/17
f 28/82/17 24/86/3 26/85/3
f 24/86/3 28/82/17 35/84/17
f 24/86/3 35/84/17 33/87/3
f 24/86/3 33/87/3 32/88/3

usemtl stone(Clone)

f 39/91/19 38/90/18 37/89/18
f 38/90/18 39/91/19 40/92/19
f 43/95/20 42/94/21 41/93/20
f 42/94/21 43/95/20 44/96/21
f 47/99/22 46/98/23 45/97/22
f 46/98/23 47/99/22 48/100/23
f 51/103/25 50/102/24 49/101/24
f 50/102/24 51/103/25 52/104/25
f 47/107/12 24/106/12 48/105/12
f 24/106/12 47/107/12 23/108/12
f 23/108/12 47/107/12 41/109/12
f 23/108/12 41/109/12 30/110/12
f 30/110/12 41/109/12 38/111/12
f 38/111/12 41/109/12 42/112/12
f 32/66/12 48/114/12 24/113/12
f 51/116/12 48/105/12 32/115/12
f 48/105/12 51/116/12 49/117/12
f 51/116/12 32/115/12 40/118/12
f 40/118/12 32/115/12 30/110/12
f 40/118/12 30/110/12 38/111/12
f 44/96/21 38/119/18 42/94/21
f 38/119/18 44/96/21 37/120/18
f 40/121/19 52/104/25 51/103/25
f 52/104/25 40/121/19 39/122/19
f 49/101/24 46/124/23 48/123/23
f 46/124/23 49/101/24 50/102/24
f 45/126/22 41/93/20 47/125/22
f 41/93/20 45/126/22 43/95/20
f 52/129/6 46/128/6 50/127/6
f 46/128/6 52/129/6 19/130/6
f 19/130/6 52/129/6 20/131/6
f 20/131/6 52/129/6 39/132/6
f 20/131/6 39/132/6 22/133/6
f 22/133/6 39/132/6 37/134/6
f 19/130/6 45/135/6 46/128/6
f 45/135/6 19/130/6 21/136/6
f 45/135/6 21/136/6 43/137/6
f 43/137/6 21/136/6 22/133/6
f 43/137/6 22/133/6 37/134/6
f 43/137/6 37/134/6 44/138/6

